<svg preserveAspectRatio="none" overflow="visible" style="display: block;" width="54.3478" height="28.8326" viewBox="0 0 54.3478 28.8326" fill="none" xmlns="http://www.w3.org/2000/svg">
<g id="Monograma Dis and Dat">
<path id="Vector" d="M49.9692 8.63005C49.5269 8.57941 49.007 8.70433 48.9023 9.21751L46.8563 18.9748C46.7348 19.5453 47.0488 20.2678 47.8591 20.1969C51.1036 19.9167 53.8012 17.4757 54.284 14.3325C54.7296 11.4391 52.7917 8.95417 49.9692 8.63005ZM52.7883 13.8497C52.5216 16.186 50.7491 17.918 48.5579 18.5662L50.2798 10.2743C51.951 10.568 52.9909 12.0704 52.7883 13.8497Z" fill="#000F28"/>
<path id="Vector_2" d="M2.08451 9.21054L0.00814588 19.1231C-0.0458734 19.3797 0.180332 19.8523 0.345767 19.9975C1.19995 20.7335 5.70381 19.4877 7.18596 15.4835C7.87133 13.6367 7.55397 11.6482 6.25413 10.1694C5.02857 8.77501 2.3276 8.03562 2.08114 9.21054H2.08451ZM5.98741 13.63C5.80847 16.0035 4.06297 17.9009 1.75365 18.5323L3.46538 10.2538C4.99143 10.5205 6.11908 11.898 5.98741 13.63Z" fill="#000F28"/>
<path id="Vector_3" d="M37.1767 4.52442C34.5871 5.40224 32.4939 7.67105 32.7843 10.2066C32.9125 11.3376 33.6013 12.6138 34.9011 12.992C36.3799 13.4207 38.0241 12.5395 39.0201 11.2397C39.324 10.8413 39.3577 10.3247 39.0167 10.0884C38.0781 9.43681 37.3455 11.8069 35.7958 11.5604C34.9214 11.4186 34.4521 10.5206 34.3542 9.87234C34.1989 8.86285 34.6344 8.00867 35.34 7.28616C37.1936 5.39211 39.9418 5.19629 41.4577 6.82362C43.0142 8.48809 42.5786 11.1688 40.5765 12.9413C36.3563 16.6788 33.0037 14.6193 27.8111 14.7712C25.6571 14.8354 23.5942 16.1487 22.5813 18.1069C21.5381 20.1225 21.8588 22.3305 23.3781 23.5696C24.5125 24.4947 26.0352 24.6095 27.5072 23.86C29.641 22.7728 31.4135 20.0921 30.1609 19.7275C29.2629 19.4675 28.9725 21.1286 27.4195 22.209C26.231 23.0328 24.8096 22.9383 24.104 21.9524C23.5132 21.1252 23.3072 20.1428 23.7191 19.0556C24.0466 18.1913 24.7928 17.3371 25.8495 16.8307C28.1757 15.7166 31.0016 16.1926 32.4433 18.0428C33.7667 19.7444 33.2941 22.3204 31.5722 24.0895C28.8915 26.8412 24.9413 27.9384 21.7002 26.8243C19.3807 26.0275 17.7635 24.2212 17.3617 21.8106C17.0376 19.8794 17.5103 17.9381 18.7966 16.1926C20.1707 14.3289 22.0715 12.7117 24.2154 11.7529C26.2141 13.0696 30.0698 13.0764 30.3399 11.1789C30.7889 8.02893 24.6476 9.85208 24.6408 9.85208C24.0095 8.98102 23.5267 7.95465 23.5031 6.82024C28.2534 8.21799 32.4939 7.24902 33.1185 4.05175C33.6384 1.3913 30.9273 -0.479118 27.8786 0.108342C25.3735 0.59114 23.2802 2.46831 22.2876 4.78777C20.5387 4.2442 18.9992 3.82555 17.2638 3.85931C14.2219 3.92008 11.3487 5.95931 10.535 8.95063C10.0725 10.6489 10.5992 12.2222 11.6661 13.127C12.9355 14.2006 14.6405 14.2513 16.3252 13.5389C18.1855 12.7489 20.451 10.5104 19.563 9.82169C18.432 8.94726 17.9222 11.7529 15.0862 12.4045C13.4825 12.7725 12.1016 11.9386 11.9834 10.3281C11.737 6.92828 15.2516 5.0106 18.3678 5.43262C18.5974 5.46301 18.8236 5.51703 19.0498 5.57442L21.9331 6.30368C21.7677 7.97828 22.3214 9.32201 23.1553 10.578C20.9371 11.7866 19.141 13.3161 17.6858 15.2776C15.2212 18.5998 15.0423 22.81 17.2706 25.6359C21.9399 31.5543 31.5215 28.4314 34.0537 22.945C35.0902 20.6998 34.9383 18.4175 33.5034 16.6855C36.7918 17.0805 40.1309 15.6963 42.4267 13.0257C46.181 8.66028 42.636 2.67426 37.1666 4.5278L37.1767 4.52442ZM28.8949 11.0101C28.7699 11.8744 26.231 11.4997 26.3188 10.9021C26.3897 10.3956 28.9961 10.2977 28.8949 11.0101ZM28.5336 1.53648C30.4614 1.40481 31.9233 2.46156 31.5283 4.045C30.6674 7.50224 23.7867 5.25368 23.7867 5.25368C24.5328 3.2077 26.4133 1.68166 28.5302 1.53648H28.5336Z" fill="#000F28"/>
</g>
</svg>
