<svg preserveAspectRatio="none" overflow="visible" style="display: block;" width="41.6" height="2.03013" viewBox="0 0 41.6 2.03013" fill="none" xmlns="http://www.w3.org/2000/svg">
<g id="Logo Dis and Dat">
<path id="Vector" d="M19.3048 2.02787C19.3788 2.0403 19.4356 2.00139 19.4534 1.91221L19.6599 0.862075L19.9469 1.75007C19.9809 1.79601 20.0344 1.82411 20.0912 1.82087C20.135 1.81817 20.1825 1.76412 20.1922 1.70629L20.4446 0.221076C20.4592 0.136222 20.4241 0.0783906 20.342 0.0643383C20.2906 0.0556908 20.2322 0.0962284 20.2036 0.157842L20.0285 1.16528L19.7464 0.296203C19.7323 0.252425 19.6496 0.215132 19.6075 0.221617C19.5718 0.227563 19.514 0.28323 19.5053 0.32863L19.208 1.8733C19.1924 1.95545 19.2383 2.01652 19.3053 2.02841L19.3048 2.02787Z" fill="#000F28"/>
<path id="Vector_2" d="M23.815 0.214019L23.4832 1.80084C23.4745 1.84192 23.5107 1.91759 23.5372 1.94083C23.674 2.05865 24.3949 1.85922 24.6322 1.21822C24.7419 0.922578 24.6911 0.604241 24.483 0.367515C24.2869 0.1443 23.8545 0.0259351 23.815 0.214019ZM24.4403 0.921498C24.4117 1.30145 24.1323 1.60519 23.7626 1.70626L24.0366 0.381026C24.2809 0.423724 24.4614 0.644236 24.4403 0.921498Z" fill="#000F28"/>
<path id="Vector_3" d="M15.8225 0.0848597C15.7825 0.0756716 15.6847 0.103776 15.6636 0.152419L14.9297 1.85274C14.9032 1.91382 14.9616 1.97975 15.0118 2.00191C15.0605 2.02299 15.1372 1.99759 15.1637 1.93706L15.4069 1.37497L15.7361 1.36308L15.7701 1.88571C15.7744 1.95219 15.8825 1.99435 15.9301 1.97489C15.9831 1.95327 16.0193 1.89652 16.0149 1.82302L15.9268 0.211872C15.9236 0.152961 15.8652 0.0945882 15.8214 0.0848597H15.8225ZM15.5112 1.12905L15.6977 0.710727L15.7285 1.12311L15.5118 1.12905H15.5112Z" fill="#000F28"/>
<path id="Vector_4" d="M30.0656 1.97271C30.585 1.92785 31.0168 1.53655 31.0941 1.03391C31.1654 0.570726 30.8552 0.172938 30.4034 0.121052C30.3326 0.112945 30.2493 0.132946 30.2326 0.215097L29.9051 1.77706C29.8856 1.8684 29.9359 1.98406 30.0656 1.97271ZM30.4536 0.383724C30.7212 0.430745 30.8876 0.671253 30.8552 0.956082C30.8125 1.33009 30.5288 1.60735 30.178 1.71112L30.4536 0.383724Z" fill="#000F28"/>
<path id="Vector_5" d="M34.2294 2.00463C34.2699 2.01814 34.351 1.99598 34.3726 1.94626L34.618 1.37552L34.9509 1.36417L34.9758 1.86681C34.9887 1.9268 35.0504 1.97977 35.112 1.97977C35.1541 1.97977 35.2319 1.92194 35.2292 1.86573L35.1411 0.212964C35.1384 0.160538 35.0817 0.100008 35.0433 0.0870362C35.005 0.0740649 34.8996 0.101627 34.8801 0.145405L34.1451 1.84573C34.1148 1.91599 34.1748 1.98625 34.2305 2.00463H34.2294ZM34.9082 0.708038L34.9401 1.12258L34.7234 1.12798L34.9082 0.708038Z" fill="#000F28"/>
<path id="Vector_6" d="M39.5146 0.189156L39.2741 0.188077C39.1844 0.146461 39.1509 0.18321 39.0612 0.188615L38.7266 0.209694C38.6558 0.214018 38.5996 0.271848 38.5969 0.337786C38.5948 0.391293 38.6629 0.460473 38.7239 0.459392L39.0098 0.45453L38.7261 1.79166C38.7115 1.85976 38.7726 1.91488 38.8255 1.92353C38.8753 1.93164 38.9558 1.90137 38.972 1.82625L39.2671 0.446421L39.5595 0.435073C39.6119 0.432912 39.6611 0.339408 39.6541 0.29509C39.6433 0.229152 39.5876 0.189697 39.5141 0.189697L39.5146 0.189156Z" fill="#000F28"/>
<path id="Vector_7" d="M0.0553512 1.9403C0.192091 2.05812 0.91308 1.85869 1.15035 1.21769C1.26006 0.922051 1.20926 0.603713 1.00118 0.366987C0.804985 0.143772 0.372609 0.0254073 0.333154 0.213491L0.00130401 1.80032C-0.00734353 1.84139 0.0288681 1.91706 0.0553512 1.9403ZM0.554205 0.38104C0.798499 0.423737 0.979018 0.644249 0.95794 0.921511C0.929295 1.30146 0.649872 1.60521 0.280189 1.70627L0.554205 0.38104Z" fill="#000F28"/>
<path id="Vector_8" d="M8.54724 1.82356C8.93638 2.03218 9.45415 1.91922 9.54928 1.54359C9.58603 1.39766 9.56117 1.24903 9.45631 1.14797L9.19581 0.897731C9.14554 0.849089 9.0515 0.760991 9.06123 0.683703C9.09042 0.459948 9.35308 0.362123 9.54117 0.447517C9.62008 0.483188 9.6925 0.447516 9.70871 0.37185C9.71898 0.324288 9.6952 0.25619 9.63197 0.224302C9.30985 0.0605393 8.89422 0.261053 8.8245 0.622089C8.78883 0.80747 8.91152 0.960425 9.03583 1.07987L9.27688 1.31119C9.30877 1.34146 9.33201 1.43009 9.32282 1.47009C9.31363 1.509 9.26661 1.57332 9.22661 1.5998C9.03907 1.72249 8.8218 1.6879 8.62237 1.59818C8.57372 1.57602 8.50563 1.63493 8.49806 1.67385C8.48887 1.72087 8.50238 1.79978 8.5467 1.8241L8.54724 1.82356Z" fill="#000F28"/>
<path id="Vector_9" d="M4.75583 1.96246C4.79259 1.95705 4.8542 1.91435 4.86447 1.85112L5.12173 0.275647C5.13308 0.206466 5.08336 0.140526 5.03039 0.131338C4.96121 0.119448 4.89852 0.162145 4.88663 0.23619L4.62612 1.85004C4.61747 1.90301 4.71584 1.9684 4.75637 1.96246H4.75583Z" fill="#000F28"/>
<path id="Vector_10" d="M41.2312 0.000540999C41.2814 0.000540999 41.3323 0.00919026 41.3841 0.0259449C41.436 0.0426995 41.4755 0.0675615 41.5014 0.10053C41.5701 0.189708 41.603 0.306449 41.5998 0.450755C41.5998 0.481562 41.5965 0.520474 41.589 0.566954C41.5728 0.668563 41.5371 0.761526 41.4825 0.84638C41.3933 0.985282 41.2706 1.06743 41.1134 1.09338C41.0928 1.09662 41.0728 1.09824 41.0528 1.09824C40.9431 1.09824 40.8626 1.05068 40.8107 0.955016C40.7577 0.859352 40.7448 0.729637 40.7707 0.567495C40.7912 0.441565 40.8318 0.329688 40.8923 0.232943C40.9664 0.110797 41.0555 0.0367527 41.1598 0.0108101C41.1744 0.00378396 41.1982 0 41.2323 0V0.001623L41.2312 0.000540999ZM41.0236 0.298882C40.9761 0.384277 40.9437 0.479399 40.9269 0.584791C40.9177 0.640459 40.9155 0.693425 40.9188 0.743148C40.9226 0.79125 40.9339 0.832327 40.9523 0.865296C40.9793 0.915559 41.0199 0.940963 41.0739 0.940963C41.0831 0.940963 41.0955 0.939882 41.1107 0.93772C41.2112 0.921506 41.2923 0.867459 41.3539 0.77612C41.3944 0.712344 41.4203 0.643704 41.4322 0.5702C41.4371 0.541555 41.4393 0.509666 41.4398 0.473995C41.4501 0.351308 41.4268 0.263212 41.3695 0.208625C41.3198 0.161604 41.2674 0.139442 41.2133 0.142685C41.1988 0.144847 41.1842 0.148632 41.1701 0.154036C41.1155 0.170791 41.0669 0.218892 41.0247 0.2978H41.0236V0.298882ZM41.3252 0.259429C41.3523 0.296722 41.362 0.34158 41.3533 0.394006C41.342 0.465348 41.3031 0.530745 41.2371 0.590197L41.2463 0.608572L41.2739 0.670186C41.2825 0.690724 41.289 0.714505 41.2939 0.740988C41.2955 0.750716 41.2955 0.759905 41.2939 0.768552C41.2901 0.790712 41.2793 0.808547 41.2614 0.822599C41.2436 0.836652 41.2236 0.843138 41.2025 0.843138C41.1874 0.843138 41.1728 0.838814 41.1598 0.830167C41.1479 0.82206 41.1398 0.809087 41.1355 0.791792C41.1344 0.781523 41.1312 0.768553 41.1247 0.752339L41.1144 0.817193C41.1107 0.840974 41.0998 0.859352 41.0815 0.873404C41.0636 0.887456 41.0436 0.893942 41.0226 0.893942C41.0015 0.893942 40.9847 0.886916 40.9707 0.873404C40.9572 0.859352 40.9523 0.840436 40.9561 0.816655C40.9896 0.608033 41.0253 0.431838 41.062 0.288072C41.0696 0.258887 41.0874 0.237809 41.1144 0.224838C41.135 0.200517 41.1582 0.188627 41.1852 0.188086L41.1988 0.190247C41.255 0.199435 41.2971 0.222677 41.3236 0.259429H41.3241H41.3252ZM41.1831 0.45886C41.1928 0.455617 41.2015 0.448592 41.2096 0.436702C41.2177 0.424812 41.2225 0.413461 41.2242 0.402111C41.2258 0.391842 41.2242 0.384276 41.2204 0.378871C41.2155 0.373466 41.2079 0.371845 41.1977 0.375087C41.1934 0.388059 41.1901 0.402113 41.1879 0.417246L41.1825 0.45886H41.1831Z" fill="#000F28"/>
</g>
</svg>
