<svg preserveAspectRatio="none" overflow="visible" style="display: block;" width="262.8" height="12.825" viewBox="0 0 262.8 12.825" fill="none" xmlns="http://www.w3.org/2000/svg">
<g id="Logo Dis and Dat">
<path id="Vector" d="M121.954 12.8107C122.422 12.8892 122.781 12.6434 122.893 12.08L124.198 5.44599L126.011 11.0557C126.226 11.3459 126.564 11.5235 126.922 11.503C127.199 11.4859 127.499 11.1445 127.561 10.7792L129.155 1.39661C129.247 0.860559 129.025 0.495217 128.506 0.406445C128.182 0.351816 127.813 0.607904 127.632 0.997137L126.526 7.36142L124.744 1.8712C124.655 1.59464 124.133 1.35905 123.866 1.40003C123.641 1.43758 123.276 1.78925 123.221 2.07606L121.343 11.8342C121.244 12.3532 121.534 12.739 121.958 12.8141L121.954 12.8107Z" fill="#000F28"/>
<path id="Vector_2" d="M150.447 1.35203L148.35 11.3765C148.296 11.636 148.525 12.114 148.692 12.2608C149.556 13.0051 154.11 11.7452 155.609 7.69585C156.302 5.82821 155.981 3.81718 154.667 2.3217C153.428 0.911586 150.696 0.16384 150.447 1.35203ZM154.397 5.82139C154.216 8.22166 152.451 10.1405 150.116 10.779L151.847 2.40706C153.39 2.67679 154.53 4.06984 154.397 5.82139Z" fill="#000F28"/>
<path id="Vector_3" d="M99.9558 0.536085C99.7031 0.478041 99.0851 0.655586 98.952 0.962875L94.3153 11.7044C94.148 12.0902 94.5168 12.5067 94.8343 12.6467C95.1416 12.7799 95.6264 12.6194 95.7937 12.237L97.3302 8.68608L99.4095 8.61097L99.6246 11.9126C99.6519 12.3326 100.335 12.5989 100.635 12.476C100.97 12.3394 101.199 11.9809 101.171 11.5166L100.615 1.33846C100.594 0.966302 100.226 0.597542 99.949 0.536085H99.9558ZM97.9891 7.13256L99.1671 4.48988L99.3617 7.09501L97.9925 7.13256H97.9891Z" fill="#000F28"/>
<path id="Vector_4" d="M189.933 12.4622C193.215 12.1788 195.943 9.70685 196.431 6.53153C196.882 3.60545 194.922 1.0925 192.067 0.764725C191.62 0.71351 191.094 0.839858 190.989 1.35884L188.919 11.2262C188.797 11.8032 189.114 12.5339 189.933 12.4622ZM192.385 2.4241C194.075 2.72115 195.127 4.24051 194.922 6.03986C194.652 8.40258 192.86 10.1541 190.644 10.8097L192.385 2.4241Z" fill="#000F28"/>
<path id="Vector_5" d="M216.237 12.6639C216.494 12.7492 217.006 12.6092 217.142 12.2951L218.692 8.68958L220.796 8.61787L220.953 11.7932C221.035 12.1722 221.424 12.5068 221.813 12.5068C222.079 12.5068 222.571 12.1415 222.554 11.7864L221.997 1.34536C221.98 1.01417 221.622 0.631778 221.379 0.549834C221.137 0.467891 220.471 0.642006 220.348 0.918567L215.705 11.66C215.514 12.1039 215.893 12.5478 216.244 12.6639H216.237ZM220.526 4.47289L220.727 7.09167L219.358 7.12581L220.526 4.47289Z" fill="#000F28"/>
<path id="Vector_6" d="M249.626 1.19496L248.107 1.18814C247.54 0.92524 247.328 1.1574 246.762 1.19154L244.648 1.3247C244.201 1.35202 243.846 1.71735 243.829 2.1339C243.815 2.47192 244.245 2.90895 244.631 2.90212L246.437 2.8714L244.645 11.3184C244.552 11.7486 244.938 12.0969 245.273 12.1515C245.587 12.2028 246.096 12.0116 246.198 11.537L248.062 2.82018L249.91 2.74849C250.241 2.73484 250.551 2.14415 250.507 1.86417C250.439 1.44763 250.087 1.19838 249.623 1.19838L249.626 1.19496Z" fill="#000F28"/>
<path id="Vector_7" d="M0.34967 12.2575C1.21349 13.0018 5.76821 11.7419 7.2671 7.69251C7.96021 5.82488 7.63926 3.81384 6.32474 2.31837C5.08534 0.908252 2.35388 0.160506 2.10464 1.34869L0.00823785 11.3731C-0.0463914 11.6326 0.182368 12.1107 0.34967 12.2575ZM3.50109 2.40714C5.04436 2.67688 6.18476 4.06992 6.0516 5.82147C5.87064 8.22174 4.10544 10.1406 1.77004 10.7791L3.50109 2.40714Z" fill="#000F28"/>
<path id="Vector_8" d="M53.9955 11.52C56.4539 12.8379 59.7248 12.1243 60.3257 9.75135C60.5579 8.82948 60.4008 7.89054 59.7384 7.25206L58.0927 5.67124C57.7752 5.36395 57.1811 4.80741 57.2426 4.31916C57.427 2.90563 59.0863 2.28764 60.2745 2.8271C60.773 3.05245 61.2305 2.8271 61.3329 2.34909C61.3978 2.04863 61.2476 1.61843 60.8481 1.41699C58.8132 0.382445 56.1875 1.64916 55.7471 3.92992C55.5218 5.10104 56.2968 6.0673 57.0821 6.82187L58.6049 8.28319C58.8063 8.47439 58.9532 9.03434 58.8951 9.287C58.8371 9.53283 58.54 9.93915 58.2874 10.1064C57.1026 10.8815 55.73 10.663 54.4701 10.0962C54.1629 9.95621 53.7327 10.3284 53.6849 10.5742C53.6268 10.8713 53.7122 11.3697 53.9921 11.5234L53.9955 11.52Z" fill="#000F28"/>
<path id="Vector_9" d="M30.0441 12.3974C30.2762 12.3633 30.6655 12.0936 30.7303 11.6941L32.3556 1.74135C32.4273 1.30431 32.1131 0.887749 31.7785 0.829705C31.3415 0.75459 30.9454 1.02432 30.8703 1.49209L29.2246 11.6873C29.17 12.0219 29.7914 12.435 30.0475 12.3974H30.0441Z" fill="#000F28"/>
<path id="Vector_10" d="M260.47 0.00341766C260.788 0.00341766 261.109 0.0580577 261.436 0.163902C261.764 0.269746 262.013 0.426807 262.177 0.63508C262.611 1.19844 262.819 1.93593 262.799 2.84756C262.799 3.04217 262.778 3.28799 262.73 3.58162C262.628 4.22352 262.403 4.8108 262.058 5.34685C261.494 6.22433 260.719 6.74331 259.726 6.90719C259.596 6.92768 259.47 6.93791 259.343 6.93791C258.65 6.93791 258.141 6.63746 257.814 6.03313C257.479 5.42879 257.397 4.60934 257.561 3.58504C257.691 2.7895 257.947 2.08274 258.329 1.47157C258.797 0.699936 259.36 0.232178 260.019 0.0682907C260.112 0.0239044 260.262 0 260.477 0V0.010253L260.47 0.00341766ZM259.159 1.88813C258.858 2.4276 258.654 3.02851 258.548 3.6943C258.49 4.04598 258.476 4.38058 258.497 4.6947C258.52 4.99857 258.592 5.25806 258.708 5.46634C258.879 5.78387 259.135 5.94435 259.476 5.94435C259.535 5.94435 259.613 5.93752 259.709 5.92387C260.344 5.82144 260.856 5.48001 261.245 4.90299C261.501 4.5001 261.665 4.06648 261.74 3.60213C261.771 3.42117 261.785 3.21972 261.788 2.99437C261.853 2.21932 261.706 1.66279 261.344 1.31795C261.03 1.0209 260.699 0.880901 260.357 0.901387C260.265 0.915044 260.173 0.938952 260.084 0.973095C259.739 1.07894 259.432 1.38281 259.166 1.8813H259.159V1.88813ZM261.064 1.63889C261.235 1.87448 261.296 2.15787 261.242 2.48906C261.17 2.93975 260.924 3.35288 260.508 3.72846L260.566 3.84453L260.74 4.23377C260.794 4.36352 260.835 4.51375 260.866 4.68105C260.876 4.74251 260.876 4.80055 260.866 4.85518C260.842 4.99517 260.774 5.10784 260.661 5.19661C260.549 5.28539 260.422 5.32636 260.289 5.32636C260.194 5.32636 260.101 5.29905 260.019 5.24442C259.944 5.1932 259.893 5.11125 259.866 5.002C259.859 4.93712 259.838 4.85519 259.797 4.75276L259.733 5.16246C259.709 5.31269 259.64 5.42879 259.524 5.51756C259.412 5.60633 259.285 5.64731 259.152 5.64731C259.019 5.64731 258.913 5.60292 258.824 5.51756C258.739 5.42879 258.708 5.30929 258.732 5.15906C258.944 3.84113 259.169 2.72805 259.401 1.81984C259.449 1.63547 259.562 1.50231 259.733 1.42037C259.862 1.26673 260.009 1.19161 260.18 1.1882L260.265 1.20185C260.62 1.25989 260.887 1.40672 261.054 1.63889H261.057H261.064ZM260.166 2.89876C260.228 2.87827 260.282 2.8339 260.333 2.75878C260.385 2.68367 260.415 2.61196 260.426 2.54026C260.436 2.47539 260.426 2.42759 260.402 2.39345C260.371 2.3593 260.323 2.34906 260.258 2.36954C260.231 2.45149 260.211 2.54027 260.197 2.63587L260.163 2.89876H260.166Z" fill="#000F28"/>
</g>
</svg>
